<svg width="800" height="800" viewBox="0 0 800 800" fill="none" xmlns="http://www.w3.org/2000/svg">
<g clip-path="url(#clip0_29_183)">
<path d="M471.85 443.297C488.237 452.515 497.636 464.43 497.636 475.99C497.636 483.15 503.437 488.951 510.596 488.951C517.756 488.951 523.557 483.15 523.557 475.99C523.557 442.537 489.355 414.855 440.61 404.848V386.132C440.61 378.972 434.809 373.171 427.65 373.171C420.491 373.171 414.689 378.972 414.689 386.132V401.342C409.877 401.008 404.983 400.82 400.001 400.82C395.019 400.82 390.125 401.01 385.313 401.342V386.132C385.313 378.972 379.512 373.171 372.352 373.171C365.193 373.171 359.392 378.972 359.392 386.132V404.848C310.647 414.855 276.445 442.537 276.445 475.99C276.445 509.444 310.647 537.125 359.392 547.132V645.002C347.829 642.21 337.236 638.211 328.152 633.101C311.765 623.884 302.366 611.967 302.366 600.408C302.366 593.249 296.565 587.448 289.406 587.448C282.246 587.448 276.445 593.249 276.445 600.408C276.445 633.862 310.647 661.543 359.392 671.55V690.267C359.392 697.426 365.193 703.227 372.352 703.227C379.512 703.227 385.313 697.426 385.313 690.267V675.057C390.125 675.39 395.019 675.579 400.001 675.579C404.983 675.579 409.877 675.388 414.689 675.057V690.267C414.689 697.426 420.491 703.227 427.65 703.227C434.809 703.227 440.61 697.426 440.61 690.267V671.55C489.355 661.543 523.557 633.862 523.557 600.408C523.557 566.955 489.355 539.273 440.61 529.266V431.396C452.173 434.19 462.766 438.187 471.85 443.297ZM328.152 508.683C311.765 499.466 302.366 487.549 302.366 475.99C302.366 464.431 311.763 452.515 328.152 443.297C337.236 438.187 347.829 434.19 359.392 431.396V520.583C347.828 517.79 337.236 513.793 328.152 508.683ZM400.001 649.659C395.035 649.659 390.13 649.461 385.313 649.079V550.639C390.125 550.972 395.019 551.161 400.001 551.161C404.967 551.161 409.872 551.359 414.689 551.741V649.079C409.872 649.461 404.967 649.659 400.001 649.659ZM471.85 567.717C488.237 576.934 497.636 588.849 497.636 600.41C497.636 611.967 488.239 623.886 471.85 633.103C462.766 638.213 452.173 642.21 440.61 645.004V555.818C452.173 558.61 462.766 562.607 471.85 567.717ZM414.689 525.763C409.877 525.43 404.983 525.241 400.001 525.241C395.035 525.241 390.13 525.043 385.313 524.661V427.323C390.13 426.941 395.035 426.742 400.001 426.742C404.967 426.742 409.872 426.941 414.689 427.323V525.763Z" fill="white"/>
<path d="M473.998 258.354C479.073 251.575 482.082 243.165 482.082 234.065C482.082 219.499 474.369 206.704 462.816 199.536C491.152 179.674 509.731 146.798 509.731 109.645V39.9352C509.731 26.4754 503.022 14.0162 491.785 6.60627C480.547 -0.803617 466.448 -2.06164 454.084 3.24175L399.999 26.4201L345.916 3.24175C333.545 -2.05991 319.451 -0.803617 308.215 6.60627C296.978 14.0162 290.27 26.4754 290.27 39.9352V109.643C290.27 146.796 308.848 179.674 337.185 199.535C325.633 206.703 317.919 219.495 317.919 234.063C317.919 243.163 320.927 251.575 326.002 258.352C202.134 291.134 110.552 404.165 110.552 538.198V648.795C110.552 732.171 178.382 800 261.757 800H538.245C621.62 800 689.45 732.171 689.45 648.795V538.198C689.45 404.165 597.868 291.135 473.998 258.354ZM399.883 248.751H358.528C350.428 248.751 343.839 242.162 343.839 234.063C343.839 225.964 350.428 219.374 358.528 219.374H399.925C399.949 219.374 399.973 219.378 399.998 219.378C399.999 219.378 399.999 219.378 400.001 219.378C400.003 219.378 400.003 219.378 400.004 219.378C400.029 219.378 400.053 219.374 400.077 219.374H441.474C449.574 219.374 456.163 225.964 456.163 234.063C456.163 242.162 449.574 248.751 441.474 248.751H400.103C400.075 248.751 400.049 248.751 400.022 248.751H399.994C399.958 248.751 399.92 248.751 399.883 248.751ZM316.19 109.643V39.9352C316.19 35.1451 318.484 30.8837 322.484 28.2467C324.839 26.6932 327.48 25.9069 330.151 25.9069C332.016 25.9069 333.898 26.2905 335.709 27.0664L394.898 52.4342C398.159 53.8322 401.847 53.8322 405.107 52.4342L464.297 27.0664C468.703 25.1776 473.521 25.6079 477.52 28.2484C481.518 30.8837 483.813 35.1451 483.813 39.9369V109.645C483.813 148.92 456.652 181.957 420.129 190.996L439.686 142.106C442.343 135.46 439.11 127.919 432.464 125.26C425.825 122.602 418.275 125.832 415.617 132.481L400.003 171.518L384.388 132.481C381.73 125.833 374.182 122.605 367.541 125.26C360.895 127.919 357.662 135.46 360.32 142.106L379.876 190.996C343.352 181.955 316.19 148.92 316.19 109.643ZM663.529 648.795C663.529 717.878 607.327 774.079 538.245 774.079H261.757C192.674 774.079 136.473 717.878 136.473 648.795V538.198C136.473 401.328 241.366 288.509 374.986 275.866L361.567 295.993C357.596 301.948 359.207 309.995 365.162 313.965C367.37 315.439 369.869 316.144 372.338 316.144C376.527 316.144 380.636 314.117 383.133 310.37L399.999 285.072L416.865 310.37C419.362 314.117 423.471 316.144 427.66 316.144C430.131 316.144 432.628 315.439 434.837 313.965C440.792 309.993 442.402 301.948 438.431 295.993L425.013 275.864C558.634 288.505 663.529 401.325 663.529 538.197V648.795Z" fill="white"/>
</g>
<defs>
<clipPath id="clip0_29_183">
<rect width="800" height="800" fill="white"/>
</clipPath>
</defs>
</svg>
